<svg width="20" height="21" viewBox="0 0 20 21" fill="none" xmlns="http://www.w3.org/2000/svg">
<path d="M11.0644 5H8.9356C7.8666 5 7 5.97327 7 7.17385V8.82615C7 10.0267 7.8666 11 8.9356 11H11.0644C12.1334 11 13 10.0267 13 8.82615V7.17385C13 5.97327 12.1334 5 11.0644 5Z" stroke="#000000" stroke-miterlimit="10"/>
<path d="M19 7.17408C19 12.6153 9.9979 19 9.9979 19C9.9979 19 1.00001 12.6153 1.00001 7.17408C0.998898 6.36368 1.15767 5.56102 1.46724 4.812C1.77681 4.06297 2.23112 3.38228 2.80417 2.80885C3.37722 2.23543 4.05777 1.78052 4.80689 1.47014C5.55602 1.15976 6.35902 0.999999 7.16998 1H12.83C13.641 0.999999 14.444 1.15976 15.1931 1.47014C15.9422 1.78052 16.6228 2.23543 17.1958 2.80885C17.7689 3.38228 18.2232 4.06297 18.5328 4.812C18.8423 5.56102 19.0011 6.36368 19 7.17408V7.17408Z" stroke="#000000" stroke-miterlimit="10"/>
</svg>
