<svg width="20" height="20" viewBox="0 0 20 20" fill="none" xmlns="http://www.w3.org/2000/svg">
<path d="M10 1H4.37079C3.4768 1 2.61942 1.3548 1.98728 1.98636C1.35513 2.61791 1 3.47448 1 4.36763V10" stroke="#000000" stroke-miterlimit="10"/>
<path d="M10 19H15.6292C16.5232 19 17.3806 18.6449 18.0127 18.0127C18.6449 17.3806 19 16.5232 19 15.6292V10" stroke="#000000" stroke-miterlimit="10"/>
<path d="M3.28047 11.5V7.75455H4.89716C5.17514 7.75455 5.41838 7.80514 5.62686 7.90634C5.83535 8.00753 5.99751 8.15323 6.11333 8.34343C6.22916 8.53363 6.28707 8.76162 6.28707 9.02741C6.28707 9.29564 6.22733 9.52181 6.10785 9.70591C5.98958 9.89002 5.82316 10.029 5.60858 10.1229C5.39521 10.2168 5.14588 10.2637 4.86058 10.2637H3.89496V9.47365H4.65575C4.77524 9.47365 4.87704 9.45902 4.96117 9.42976C5.04651 9.39928 5.11174 9.35112 5.15685 9.28528C5.20318 9.21944 5.22635 9.13349 5.22635 9.02741C5.22635 8.92012 5.20318 8.83295 5.15685 8.76589C5.11174 8.69761 5.04651 8.64763 4.96117 8.61593C4.87704 8.58301 4.77524 8.56655 4.65575 8.56655H4.2973V11.5H3.28047ZM5.47507 9.78089L6.41143 11.5H5.30682L4.3924 9.78089H5.47507ZM6.82351 11.5V7.75455H9.52287V8.57386H7.84034V9.21761H9.38388V10.0369H7.84034V10.6807H9.51555V11.5H6.82351ZM10.1302 11.5V7.75455H11.7469C12.0248 7.75455 12.2681 7.80514 12.4766 7.90634C12.6851 8.00753 12.8472 8.15323 12.963 8.34343C13.0789 8.53363 13.1368 8.76162 13.1368 9.02741C13.1368 9.29564 13.077 9.52181 12.9575 9.70591C12.8393 9.89002 12.6729 10.029 12.4583 10.1229C12.2449 10.2168 11.9956 10.2637 11.7103 10.2637H10.7447V9.47365H11.5055C11.6249 9.47365 11.7267 9.45902 11.8109 9.42976C11.8962 9.39928 11.9614 9.35112 12.0066 9.28528C12.0529 9.21944 12.0761 9.13349 12.0761 9.02741C12.0761 8.92012 12.0529 8.83295 12.0066 8.76589C11.9614 8.69761 11.8962 8.64763 11.8109 8.61593C11.7267 8.58301 11.6249 8.56655 11.5055 8.56655H11.147V11.5H10.1302ZM12.3248 9.78089L13.2611 11.5H12.1565L11.2421 9.78089H12.3248ZM14.6461 11.5H13.5488L14.7851 7.75455H16.1751L17.4113 11.5H16.314L15.4947 8.78601H15.4655L14.6461 11.5ZM14.4413 10.0223H16.5042V10.7831H14.4413V10.0223Z" fill="#000000"/>
</svg>
