<svg width="20" height="20" viewBox="0 0 20 20" fill="none" xmlns="http://www.w3.org/2000/svg">
<path d="M4.37079 1H19V19H1V4.37079C1 3.4768 1.35514 2.61943 1.98728 1.98728C2.61943 1.35514 3.4768 1 4.37079 1Z" stroke="#000000" stroke-miterlimit="10"/>
<path d="M16.8008 5.59961H12.8008C12.359 5.59961 12.0008 5.95778 12.0008 6.39961V15.1996" stroke="#000000" stroke-width="0.8" stroke-miterlimit="10"/>
<path d="M15.2012 4H11.2012C10.7593 4 10.4012 4.35817 10.4012 4.8V13.6" stroke="#000000" stroke-width="0.8" stroke-miterlimit="10"/>
<path d="M4 7.39844H8C8.44183 7.39844 8.8 7.75661 8.8 8.19844V16.9984" stroke="#000000" stroke-width="0.8" stroke-miterlimit="10"/>
<path d="M5.59961 5.79883H9.59961C10.0414 5.79883 10.3996 6.157 10.3996 6.59883V15.3988" stroke="#000000" stroke-width="0.8" stroke-miterlimit="10"/>
</svg>
